<?xml version="1.0" standalone="no"?>
<!DOCTYPE svg PUBLIC "-//W3C//DTD SVG 20010904//EN"
 "http://www.w3.org/TR/2001/REC-SVG-20010904/DTD/svg10.dtd">
<svg version="1.0" xmlns="http://www.w3.org/2000/svg"
 width="392.000000pt" height="392.000000pt" viewBox="0 0 392.000000 392.000000"
 preserveAspectRatio="xMidYMid meet">
<metadata>
Created by potrace 1.11, written by Peter Selinger 2001-2013
</metadata>
<g transform="translate(0.000000,392.000000) scale(0.100000,-0.100000)"
fill="#000000" stroke="none">
<path d="M1468 3841 c-96 -12 -155 -23 -172 -34 -25 -17 -40 -56 -80 -207 -19
-72 -20 -42 -1 35 22 91 19 128 -10 158 -14 13 -38 27 -54 29 -31 5 -313 -17
-360 -27 -58 -13 -77 -45 -100 -173 -12 -64 -24 -127 -26 -138 -4 -17 -15 -23
-50 -27 -63 -9 -104 -33 -120 -70 -7 -18 -19 -99 -26 -181 -13 -146 -13 -149
8 -188 l22 -39 -22 -8 c-27 -11 -52 -39 -61 -68 -12 -37 -43 -352 -39 -378 6
-27 49 -75 68 -75 9 0 6 -22 -12 -77 -29 -92 -31 -135 -9 -168 l16 -25 -220 0
-220 0 0 -655 0 -655 740 0 740 0 0 -134 c0 -98 3 -136 13 -139 6 -3 -327 -6
-740 -6 l-753 -1 0 -295 0 -295 1840 0 1840 0 0 70 0 69 73 3 72 3 3 73 3 72
44 0 45 0 0 150 0 150 -120 0 -120 0 0 70 0 70 -434 0 c-239 0 -441 -3 -450
-6 -12 -5 -16 -21 -16 -65 0 -49 3 -59 18 -61 9 0 -12 -4 -48 -8 -79 -9 -631
-12 -680 -4 l-35 6 4 55 c2 39 -1 58 -10 64 -8 5 94 9 236 9 138 0 307 3 378
7 l127 6 0 69 0 68 183 0 c100 0 191 3 202 6 16 4 20 13 19 42 -2 76 -4 81
-26 85 -13 2 100 5 250 6 l272 1 0 -70 0 -70 125 0 125 0 0 365 0 365 -45 0
-45 0 0 145 0 145 -75 0 -75 0 0 75 0 75 -145 0 -145 0 0 70 0 70 -247 0 -248
1 66 22 c129 44 262 154 329 270 16 28 39 87 51 131 28 106 24 267 -10 365
-26 74 -89 171 -131 203 -17 12 -30 25 -30 28 0 3 61 24 136 45 165 47 178 58
194 157 44 257 -78 414 -336 435 -116 9 -314 -45 -428 -117 -26 -17 -45 -26
-41 -20 11 18 -7 79 -32 104 -32 32 -46 33 -183 18 -63 -7 -237 -14 -387 -16
-237 -3 -276 -6 -299 -20 -14 -10 -27 -16 -28 -14 -1 2 -7 16 -14 31 -13 31
-65 58 -109 56 -15 -1 -94 -9 -175 -18z m189 -105 c-7 -19 -87 -321 -87 -329
0 -4 44 -7 98 -7 l99 0 -24 -102 c-12 -57 -26 -124 -29 -150 -4 -27 -7 -49 -8
-49 0 -1 -48 -4 -106 -8 l-105 -6 -12 -70 c-7 -38 -15 -81 -18 -94 l-6 -24
111 8 112 7 -6 -29 c-7 -35 -46 -275 -46 -285 0 -5 -49 -8 -110 -8 l-109 0 -7
-37 c-4 -21 -15 -83 -23 -138 l-16 -100 -155 4 c-85 1 -157 4 -158 6 -2 2 10
57 27 123 17 65 31 123 31 128 0 9 -207 1 -216 -9 -3 -2 -17 -65 -32 -138
l-27 -134 -100 -8 c-55 -4 -128 -11 -163 -15 -55 -8 -62 -7 -57 7 16 40 75
244 75 257 0 10 -14 14 -55 14 l-56 0 6 48 c4 26 12 99 18 162 l12 115 77 3
76 3 16 87 c9 48 16 90 16 95 0 4 -32 7 -70 7 -68 0 -70 1 -66 23 3 12 8 56
11 97 3 41 8 94 11 118 l6 42 67 0 c36 0 72 4 79 9 8 4 26 76 42 166 16 87 35
162 41 165 6 4 56 10 112 14 56 4 124 9 151 13 30 4 47 2 43 -3 -3 -6 -19 -77
-36 -159 -17 -83 -33 -159 -36 -170 -4 -19 0 -20 88 -17 142 4 126 -12 171
177 22 91 44 169 49 172 10 6 202 29 266 32 25 1 32 -3 28 -13z m933 -13 c0
-5 -12 -68 -26 -140 -30 -148 -21 -137 -128 -152 -38 -6 -73 -15 -77 -22 -13
-22 -56 -264 -113 -639 -31 -201 -59 -383 -63 -405 l-8 -39 -145 -23 c-80 -12
-159 -25 -175 -28 l-31 -5 63 312 c69 341 143 769 143 824 l0 34 -74 0 c-107
0 -106 0 -106 84 0 39 3 94 6 123 l7 52 215 0 c189 0 479 16 491 27 7 7 21 4
21 -3z m696 -21 c50 -26 88 -69 104 -118 12 -36 10 -187 -2 -200 -5 -4 -265
-84 -275 -84 -2 0 -3 28 -3 62 0 50 -4 66 -22 85 -30 33 -75 30 -127 -7 -52
-38 -76 -85 -67 -133 9 -50 37 -80 135 -146 101 -69 130 -94 164 -147 64 -97
81 -280 38 -407 -71 -211 -293 -350 -534 -335 -104 7 -197 57 -273 148 l-24
28 73 140 72 140 38 -39 c49 -49 149 -99 199 -99 85 0 148 52 148 122 0 70
-41 120 -196 236 -107 80 -167 141 -194 198 -32 65 -25 169 16 250 70 138 244
262 447 319 78 22 230 15 283 -13z m-1541 -128 c-5 -45 -11 -64 -21 -64 -18 0
-18 6 3 88 19 78 28 67 18 -24z m-548 -66 c-3 -7 -5 -2 -5 12 0 14 2 19 5 13
2 -7 2 -19 0 -25z m712 -184 c7 -7 -49 -334 -120 -688 -38 -193 -69 -359 -69
-370 0 -12 9 -36 20 -53 l20 -33 -478 1 c-317 1 -463 4 -436 10 45 11 76 38
92 84 8 23 11 25 11 9 1 -11 13 -31 27 -45 25 -24 27 -24 230 -24 l204 0 25
26 c20 19 30 45 41 110 9 46 17 94 20 105 3 19 12 22 86 26 86 5 119 17 138
53 15 28 68 370 62 400 -2 13 -11 31 -21 41 -15 16 -14 19 15 48 25 25 33 45
43 106 6 41 19 106 27 143 14 62 18 67 37 61 12 -3 24 -8 26 -10z m526 -204
c9 -40 81 -137 136 -181 24 -20 81 -64 126 -98 87 -66 137 -117 127 -132 -9
-15 -63 -10 -102 10 -20 10 -54 38 -75 61 -45 48 -79 64 -123 56 -43 -9 -63
-34 -134 -174 -34 -68 -64 -121 -67 -118 -8 8 90 616 98 610 4 -2 10 -18 14
-34z m7 -863 c35 -25 79 -52 98 -60 32 -14 11 -15 -275 -15 l-310 0 132 23
c164 28 187 42 198 125 11 74 13 75 55 22 21 -28 68 -71 102 -95z m1078 -589
l-5 -73 -3 67 c-2 53 -6 68 -20 71 -11 3 -8 5 8 6 25 1 25 1 20 -71z"/>
<path d="M1038 3073 c-24 -3 -39 -10 -42 -21 -8 -28 -36 -153 -36 -162 0 -12
204 1 212 14 7 11 19 60 33 139 l7 37 -68 -2 c-38 -1 -86 -3 -106 -5z"/>
</g>
</svg>
